<svg width="22" height="22" viewBox="0 0 22 22" fill="none" xmlns="http://www.w3.org/2000/svg">
<path d="M9.16666 4.58333H12.8333C12.8333 4.0971 12.6402 3.63079 12.2964 3.28697C11.9525 2.94315 11.4862 2.75 11 2.75C10.5138 2.75 10.0475 2.94315 9.70363 3.28697C9.35982 3.63079 9.16666 4.0971 9.16666 4.58333ZM7.79166 4.58333C7.79166 4.16201 7.87465 3.74481 8.03588 3.35556C8.19711 2.9663 8.43344 2.61262 8.73136 2.3147C9.02928 2.01678 9.38297 1.78045 9.77222 1.61922C10.1615 1.45799 10.5787 1.375 11 1.375C11.4213 1.375 11.8385 1.45799 12.2278 1.61922C12.617 1.78045 12.9707 2.01678 13.2686 2.3147C13.5666 2.61262 13.8029 2.9663 13.9641 3.35556C14.1253 3.74481 14.2083 4.16201 14.2083 4.58333H19.4792C19.6615 4.58333 19.8364 4.65577 19.9653 4.7847C20.0942 4.91363 20.1667 5.0885 20.1667 5.27083C20.1667 5.45317 20.0942 5.62804 19.9653 5.75697C19.8364 5.8859 19.6615 5.95833 19.4792 5.95833H18.2692L17.1967 17.0601C17.1144 17.9107 16.7182 18.7002 16.0854 19.2746C15.4525 19.849 14.6284 20.167 13.7738 20.1667H8.22616C7.3717 20.1668 6.54784 19.8486 5.9152 19.2743C5.28256 18.6999 4.8865 17.9106 4.80425 17.0601L3.73083 5.95833H2.52083C2.33849 5.95833 2.16362 5.8859 2.03469 5.75697C1.90576 5.62804 1.83333 5.45317 1.83333 5.27083C1.83333 5.0885 1.90576 4.91363 2.03469 4.7847C2.16362 4.65577 2.33849 4.58333 2.52083 4.58333H7.79166ZM9.625 8.9375C9.625 8.75516 9.55256 8.5803 9.42363 8.45136C9.2947 8.32243 9.11983 8.25 8.9375 8.25C8.75516 8.25 8.58029 8.32243 8.45136 8.45136C8.32243 8.5803 8.25 8.75516 8.25 8.9375V15.8125C8.25 15.9948 8.32243 16.1697 8.45136 16.2986C8.58029 16.4276 8.75516 16.5 8.9375 16.5C9.11983 16.5 9.2947 16.4276 9.42363 16.2986C9.55256 16.1697 9.625 15.9948 9.625 15.8125V8.9375ZM13.0625 8.25C13.2448 8.25 13.4197 8.32243 13.5486 8.45136C13.6776 8.5803 13.75 8.75516 13.75 8.9375V15.8125C13.75 15.9948 13.6776 16.1697 13.5486 16.2986C13.4197 16.4276 13.2448 16.5 13.0625 16.5C12.8802 16.5 12.7053 16.4276 12.5764 16.2986C12.4474 16.1697 12.375 15.9948 12.375 15.8125V8.9375C12.375 8.75516 12.4474 8.5803 12.5764 8.45136C12.7053 8.32243 12.8802 8.25 13.0625 8.25ZM6.17283 16.9281C6.22227 17.4383 6.45997 17.9119 6.83958 18.2564C7.2192 18.601 7.71351 18.7918 8.22616 18.7917H13.7738C14.2865 18.7918 14.7808 18.601 15.1604 18.2564C15.54 17.9119 15.7777 17.4383 15.8272 16.9281L16.8887 5.95833H5.11133L6.17283 16.9281Z" fill="#797979"/>
</svg>
