<svg width="25" height="25" viewBox="0 0 25 25" fill="none" xmlns="http://www.w3.org/2000/svg">
<g clip-path="url(#clip0_59_4893)">
<path fill-rule="evenodd" clip-rule="evenodd" d="M8.27605 2.34375H16.724C18.1479 2.34375 19.2969 2.34375 20.2 2.46563C21.1375 2.59063 21.9271 2.86146 22.5542 3.4875C23.1813 4.11458 23.45 4.90417 23.5771 5.84167C23.6979 6.74479 23.6979 7.89375 23.6979 9.31771V10.474C23.6979 11.8979 23.6979 13.0469 23.5771 13.95C23.45 14.8875 23.1813 15.6771 22.5542 16.3042C21.9271 16.9313 21.1375 17.2 20.2 17.3271C19.2969 17.4479 18.1479 17.4479 16.724 17.4479H13.2813V19.2292L18.9969 21.1333C19.0943 21.1658 19.1843 21.217 19.2619 21.2843C19.3395 21.3515 19.4031 21.4333 19.449 21.5251C19.495 21.6169 19.5224 21.7169 19.5297 21.8193C19.537 21.9217 19.5241 22.0245 19.4917 22.1219C19.4593 22.2193 19.408 22.3093 19.3407 22.3869C19.2735 22.4645 19.1917 22.5281 19.0999 22.574C19.0081 22.62 18.9081 22.6474 18.8058 22.6547C18.7034 22.662 18.6005 22.6491 18.5031 22.6167L12.5 20.6146L6.49689 22.6146C6.39852 22.6516 6.2937 22.6683 6.18871 22.6639C6.08371 22.6594 5.98069 22.6338 5.88582 22.5886C5.79095 22.5434 5.70618 22.4795 5.63657 22.4008C5.56697 22.3221 5.51396 22.2301 5.48073 22.1304C5.44749 22.0307 5.43472 21.9253 5.44316 21.8206C5.45161 21.7158 5.4811 21.6138 5.52987 21.5208C5.57864 21.4277 5.6457 21.3454 5.72702 21.2788C5.80833 21.2122 5.90225 21.1628 6.00314 21.1333L11.7188 19.2271V17.4479H8.27605C6.85209 17.4479 5.70314 17.4479 4.80001 17.3271C3.86251 17.2 3.07293 16.9313 2.44584 16.3042C1.81876 15.6771 1.55001 14.8875 1.42397 13.95C1.30209 13.0469 1.30209 11.8979 1.30209 10.474V9.31771C1.30209 7.89375 1.30209 6.74479 1.42397 5.84167C1.54897 4.90417 1.8198 4.11458 2.44584 3.4875C3.07293 2.86042 3.86251 2.59167 4.80001 2.46563C5.70314 2.34375 6.85209 2.34375 8.27605 2.34375ZM5.00834 4.01354C4.24376 4.11667 3.83959 4.30521 3.55105 4.59271C3.26251 4.88125 3.07501 5.28542 2.97189 6.05104C2.86668 6.83542 2.86459 7.87917 2.86459 9.375V10.4167C2.86459 11.9115 2.86668 12.9552 2.97189 13.7417C3.07501 14.5063 3.26355 14.9104 3.55105 15.199C3.83959 15.4875 4.24376 15.675 5.00939 15.7781C5.7948 15.8833 6.83855 15.8854 8.33334 15.8854H16.6667C18.1615 15.8854 19.2042 15.8833 19.9917 15.7781C20.7563 15.675 21.1604 15.4865 21.449 15.199C21.7375 14.9104 21.925 14.5063 22.0281 13.7406C22.1333 12.9542 22.1354 11.9115 22.1354 10.4167V9.375C22.1354 7.88021 22.1333 6.83646 22.0281 6.05C21.925 5.28542 21.7365 4.88125 21.449 4.59271C21.1604 4.30417 20.7563 4.11667 19.9906 4.01354C19.2042 3.90833 18.1615 3.90625 16.6667 3.90625H8.33334C6.83855 3.90625 5.7948 3.90833 5.00834 4.01354Z" fill="black"/>
</g>
<defs>
<clipPath id="clip0_59_4893">
<rect width="25" height="25" fill="white"/>
</clipPath>
</defs>
</svg>
