<svg width="23" height="23" viewBox="0 0 23 23" fill="none" xmlns="http://www.w3.org/2000/svg">
<path fill-rule="evenodd" clip-rule="evenodd" d="M2.15625 20.125H21.5625V18.6875H2.875V0H1.4375V19.4062L2.15625 20.125ZM4.3125 16.5312V5.03125L5.03125 4.3125H7.90625L8.625 5.03125V16.5312L7.90625 17.25H5.03125L4.3125 16.5312ZM7.1875 15.8125V5.75H5.75V15.8125H7.1875ZM15.8125 2.15625V16.5312L16.5312 17.25H19.4062L20.125 16.5312V2.15625L19.4062 1.4375H16.5312L15.8125 2.15625ZM18.6875 2.875V15.8125H17.25V2.875H18.6875ZM10.0625 16.5312V7.90625L10.7812 7.1875H13.6562L14.375 7.90625V16.5312L13.6562 17.25H10.7812L10.0625 16.5312ZM12.9375 15.8125V8.625H11.5V15.8125H12.9375Z" fill="black"/>
</svg>
