<svg width="28" height="28" viewBox="0 0 28 28" fill="none" xmlns="http://www.w3.org/2000/svg">
<path d="M4.66666 22.1667V19.8334H7V11.6667C7 11.025 7.08283 10.3931 7.2485 9.77088C7.41416 9.14865 7.66189 8.5556 7.99166 7.99171L9.74166 9.74171C9.60555 10.0528 9.50366 10.369 9.436 10.6902C9.36833 11.0114 9.33411 11.3369 9.33333 11.6667V19.8334H16.5667L1.63333 4.90004L3.26666 3.26671L24.7333 24.7334L23.1 26.3667L18.8417 22.1667H4.66666ZM21 17.675L18.6667 15.3417V11.6667C18.6667 10.3834 18.2097 9.28477 17.2958 8.37088C16.3819 7.45699 15.2833 7.00004 14 7.00004C13.4944 7.00004 13.0083 7.07782 12.5417 7.23338C12.075 7.38893 11.6472 7.62227 11.2583 7.93338L9.56666 6.24171C9.95555 5.9306 10.3736 5.65838 10.8208 5.42504C11.2681 5.19171 11.7444 5.01671 12.25 4.90004V4.08338C12.25 3.59727 12.4199 3.18427 12.7598 2.84438C13.0997 2.50449 13.5131 2.33415 14 2.33338C14.4869 2.3326 14.9003 2.50293 15.2402 2.84438C15.5801 3.18582 15.75 3.59882 15.75 4.08338V4.90004C17.3056 5.28893 18.5694 6.11066 19.5417 7.36521C20.5139 8.61977 21 10.0536 21 11.6667V17.675ZM14 25.6667C13.3583 25.6667 12.8092 25.4384 12.3527 24.9819C11.8961 24.5253 11.6674 23.9758 11.6667 23.3334H16.3333C16.3333 23.975 16.1051 24.5245 15.6485 24.9819C15.1919 25.4392 14.6424 25.6675 14 25.6667Z" fill="black"/>
</svg>
