<svg width="28" height="28" viewBox="0 0 28 28" fill="none" xmlns="http://www.w3.org/2000/svg">
<path d="M4.66669 22.1666V19.8333H7.00002V11.6666C7.00002 10.0527 7.48613 8.61887 8.45835 7.36509C9.43058 6.11131 10.6945 5.28959 12.25 4.89992V4.08325C12.25 3.59714 12.4204 3.18414 12.761 2.84425C13.1017 2.50437 13.5147 2.33403 14 2.33325C14.4854 2.33248 14.8987 2.50281 15.2402 2.84425C15.5816 3.1857 15.7516 3.5987 15.75 4.08325V4.89992C17.3056 5.28881 18.5695 6.11053 19.5417 7.36509C20.5139 8.61964 21 10.0535 21 11.6666V19.8333H23.3334V22.1666H4.66669ZM14 25.6666C13.3584 25.6666 12.8092 25.4383 12.3527 24.9818C11.8961 24.5252 11.6675 23.9757 11.6667 23.3333H16.3334C16.3334 23.9749 16.1051 24.5244 15.6485 24.9818C15.192 25.4391 14.6425 25.6674 14 25.6666ZM9.33335 19.8333H18.6667V11.6666C18.6667 10.3833 18.2097 9.28464 17.2959 8.37075C16.382 7.45687 15.2834 6.99992 14 6.99992C12.7167 6.99992 11.6181 7.45687 10.7042 8.37075C9.7903 9.28464 9.33335 10.3833 9.33335 11.6666V19.8333Z" fill="black"/>
</svg>
