<svg width="14" height="8" viewBox="0 0 14 8" fill="none" xmlns="http://www.w3.org/2000/svg">
<path d="M7.08245 6.22247L12.448 0.864073C12.5001 0.811711 12.5622 0.770335 12.6306 0.742396C12.6989 0.714457 12.7722 0.700522 12.8461 0.701417C12.9199 0.702312 12.9929 0.718019 13.0605 0.747608C13.1282 0.777196 13.1892 0.820064 13.24 0.873673C13.3441 0.983325 13.4014 1.12924 13.3996 1.28042C13.3978 1.4316 13.3371 1.57612 13.2304 1.68327L7.46805 7.43767C7.41635 7.48973 7.35478 7.53096 7.28696 7.55894C7.21913 7.58693 7.14641 7.60111 7.07304 7.60067C6.99967 7.60022 6.92713 7.58515 6.85965 7.55634C6.79217 7.52753 6.73112 7.48556 6.68005 7.43287L0.764049 1.37607C0.659347 1.26764 0.60083 1.1228 0.60083 0.972073C0.60083 0.821344 0.659347 0.676502 0.764049 0.568073C0.815499 0.515093 0.877057 0.472975 0.945078 0.444215C1.0131 0.415454 1.0862 0.400635 1.16005 0.400635C1.2339 0.400635 1.307 0.415454 1.37502 0.444215C1.44304 0.472975 1.5046 0.515093 1.55605 0.568073L7.08245 6.22247Z" fill="#797979"/>
</svg>
