<svg width="26" height="26" viewBox="0 0 26 26" fill="none" xmlns="http://www.w3.org/2000/svg">
<path d="M23.4528 21.5311C21.906 18.8569 19.5223 16.9394 16.7405 16.0305C18.1165 15.2113 19.1856 13.9631 19.7836 12.4776C20.3815 10.9921 20.4753 9.3513 20.0505 7.8073C19.6257 6.26331 18.7059 4.90144 17.4322 3.93083C16.1585 2.96023 14.6014 2.43457 13 2.43457C11.3986 2.43457 9.84154 2.96023 8.56784 3.93083C7.29414 4.90144 6.37426 6.26331 5.94947 7.8073C5.52468 9.3513 5.61847 10.9921 6.21642 12.4776C6.81438 13.9631 7.88345 15.2113 9.25945 16.0305C6.47766 16.9384 4.09398 18.8559 2.54719 21.5311C2.49046 21.6236 2.45284 21.7265 2.43653 21.8338C2.42023 21.941 2.42557 22.0505 2.45225 22.1556C2.47893 22.2608 2.5264 22.3596 2.59187 22.4461C2.65733 22.5326 2.73946 22.6052 2.83342 22.6594C2.92737 22.7137 3.03124 22.7486 3.1389 22.7621C3.24656 22.7755 3.35583 22.7673 3.46026 22.7379C3.56469 22.7084 3.66216 22.6584 3.74693 22.5907C3.8317 22.5229 3.90205 22.4389 3.95383 22.3436C5.86727 19.0367 9.2493 17.0623 13 17.0623C16.7507 17.0623 20.1327 19.0367 22.0462 22.3436C22.0979 22.4389 22.1683 22.5229 22.2531 22.5907C22.3378 22.6584 22.4353 22.7084 22.5397 22.7379C22.6442 22.7673 22.7534 22.7755 22.8611 22.7621C22.9688 22.7486 23.0726 22.7137 23.1666 22.6594C23.2605 22.6052 23.3427 22.5326 23.4081 22.4461C23.4736 22.3596 23.5211 22.2608 23.5477 22.1556C23.5744 22.0505 23.5798 21.941 23.5635 21.8338C23.5472 21.7265 23.5095 21.6236 23.4528 21.5311ZM7.3125 9.74983C7.3125 8.62495 7.64607 7.52533 8.27102 6.59003C8.89597 5.65472 9.78423 4.92574 10.8235 4.49527C11.8627 4.06479 13.0063 3.95216 14.1096 4.17162C15.2128 4.39107 16.2263 4.93275 17.0217 5.72816C17.8171 6.52357 18.3588 7.53699 18.5782 8.64026C18.7977 9.74352 18.685 10.8871 18.2546 11.9263C17.8241 12.9656 17.0951 13.8539 16.1598 14.4788C15.2245 15.1038 14.1249 15.4373 13 15.4373C11.4921 15.4357 10.0464 14.836 8.98011 13.7697C7.91385 12.7035 7.31411 11.2578 7.3125 9.74983Z" fill="black"/>
</svg>
