<?xml version="1.0" encoding="UTF-8"?><svg id="Layer_1" xmlns="http://www.w3.org/2000/svg" xmlns:xlink="http://www.w3.org/1999/xlink" viewBox="0 0 907.09 907.09"><defs><style>.cls-1{fill:#9e1010;}.cls-1,.cls-2,.cls-3,.cls-4,.cls-5,.cls-6{stroke-width:0px;}.cls-2{fill:url(#linear-gradient);}.cls-7{fill:none;stroke:#dbdbdb;stroke-miterlimit:10;stroke-width:33.46px;}.cls-3{fill:#0d1e75;}.cls-4{fill:url(#linear-gradient-2);}.cls-5{fill:url(#linear-gradient-3);}.cls-6{fill:url(#linear-gradient-4);}</style><linearGradient id="linear-gradient" x1="333.08" y1="226.74" x2="44.79" y2="226.74" gradientUnits="userSpaceOnUse"><stop offset="0" stop-color="#0d1e75" stop-opacity=".3"/><stop offset="1" stop-color="#fff" stop-opacity=".3"/></linearGradient><linearGradient id="linear-gradient-2" x1="567.31" y1="633.43" x2="855.6" y2="633.43" gradientUnits="userSpaceOnUse"><stop offset="0" stop-color="#9e1010" stop-opacity=".3"/><stop offset="1" stop-color="#fff" stop-opacity=".3"/></linearGradient><linearGradient id="linear-gradient-3" x1="84.73" y1="1885.7" x2="61.79" y2="1729.66" gradientTransform="translate(-655.61 1439.26) rotate(51.64) scale(1 -1)" gradientUnits="userSpaceOnUse"><stop offset="0" stop-color="#fff" stop-opacity=".3"/><stop offset="1" stop-color="#0d1e75" stop-opacity=".3"/></linearGradient><linearGradient id="linear-gradient-4" x1="52.05" y1="527.82" x2="163.78" y2="416.09" gradientUnits="userSpaceOnUse"><stop offset="0" stop-color="#9e1010" stop-opacity=".3"/><stop offset="1" stop-color="#fff" stop-opacity=".3"/></linearGradient></defs><path class="cls-1" d="M783.44,521.63v73.23c0,43.36-35.28,78.64-78.64,78.64H192.84c-43.36,0-78.64-35.27-78.64-78.64v-160.75H42.13v160.75c0,83.1,67.61,150.71,150.71,150.71h511.97c83.1,0,150.71-67.61,150.71-150.71v-73.23h-72.07Z"/><path class="cls-3" d="M117.09,338.59v-73.23c0-43.36,35.28-78.64,78.64-78.64h119.56s18.02,0,18.02,0h374.39c43.36,0,78.64,35.27,78.64,78.64v160.75s72.07,0,72.07,0v-160.75c0-83.1-67.61-150.71-150.71-150.71h-374.39s-18.02,0-18.02,0h-119.56c-83.1,0-150.71,67.61-150.71,150.71v73.23s72.07,0,72.07,0Z"/><path class="cls-2" d="M333.08,114.77h-137.58c-83.1,0-150.71,67.61-150.71,150.71v73.23h72.07v-73.23c0-43.36,35.28-78.63,78.64-78.63"/><path class="cls-4" d="M567.31,745.4h137.58c83.1,0,150.71-67.61,150.71-150.71v-73.23h-72.07v73.23c0,43.36-35.28,78.64-78.64,78.64"/><circle class="cls-1" cx="82.6" cy="446.16" r="79.36"/><circle class="cls-3" cx="824.57" cy="403.89" r="79.28"/><line class="cls-7" x1="272.59" y1="427.51" x2="630.37" y2="427.51"/><line class="cls-7" x1="272.59" y1="314.25" x2="630.37" y2="314.25"/><line class="cls-7" x1="263.58" y1="538.19" x2="639.38" y2="538.19"/><path class="cls-1" d="M347.85,741.29c-31.33,16.22-63.84,39.18-83.49,68.89-2.4,3.62-4.55,7.41-6.43,11.34-3.09,6.43-7.53.83-9.73-3.22-11.08-20.42-18.49-42.83-25.87-64.79-1.86-5.55-3.69-11.11-5.45-16.7"/><path class="cls-5" d="M886.71,354.69c-27.17-34.33-77.04-40.13-111.37-12.96-34.33,27.17-40.13,77.04-12.96,111.37"/><path class="cls-6" d="M161.97,446.16c0-18.17-6.12-34.9-16.39-48.28l-123.75,99.04c9.15,11.56,20.74,18.9,33.58,23.82,8.48,3.09,17.64,4.78,27.19,4.78,43.83,0,79.36-35.53,79.36-79.36Z"/></svg>